<svg width="1" height="1" viewBox="0 0 1 1" fill="none" xmlns="http://www.w3.org/2000/svg">
<path d="M0.698654 1H0.03C0.0134315 1 0 0.986569 0 0.97V0.03C0 0.0134315 0.0134314 0 0.03 0H0.604287C0.614268 0 0.623596 0.00496447 0.629171 0.013244L0.684983 0.096131C0.690558 0.104411 0.699886 0.109375 0.709868 0.109375H0.97C0.986569 0.109375 1 0.122806 1 0.139375V0.765139C1 0.781707 0.986569 0.795139 0.97 0.795139H0.730575C0.711617 0.795139 0.697413 0.812504 0.70117 0.831085L0.728059 0.964054C0.731816 0.982635 0.717612 1 0.698654 1Z" fill="#E8E8E2"/>
</svg>
