<svg width="435" height="216" viewBox="0 0 435 216" fill="none" xmlns="http://www.w3.org/2000/svg">
<path d="M305.025 216H10.75C5.22715 216 0.75 211.523 0.75 206V10C0.75 4.47715 5.22716 0 10.75 0H266.645C268.785 0 270.868 0.686373 272.589 1.95825L299.254 21.6668C300.974 22.9386 303.058 23.625 305.198 23.625H424.75C430.273 23.625 434.75 28.1022 434.75 33.625V161.75C434.75 167.273 430.273 171.75 424.75 171.75H316.76C309.662 171.75 304.824 178.938 307.496 185.514L314.29 202.236C316.962 208.812 312.123 216 305.025 216Z" fill="#E8E8E2"/>
</svg>
