<svg width="435" height="288" viewBox="0 0 435 288" fill="none" xmlns="http://www.w3.org/2000/svg">
<path d="M306.494 288H10.5C4.97715 288 0.5 283.523 0.5 278V10C0.5 4.47715 4.97715 0 10.5 0H265.904C268.529 0 271.048 1.03207 272.919 2.87347L299.081 28.6265C300.952 30.4679 303.471 31.5 306.096 31.5H425C430.523 31.5 435 35.9771 435 41.5V219C435 224.523 430.523 229 425 229H315.506C308.788 229 303.981 235.492 305.941 241.918L316.059 275.082C318.019 281.508 313.212 288 306.494 288Z" fill="#E8E8E2"/>
</svg>
