<?xml version="1.0" encoding="UTF-8"?>
<svg version="1.1" xmlns="http://www.w3.org/2000/svg" width="85" height="121">
<path d="M0 0 C4.62 0 9.24 0 14 0 C18.62411464 38.96639968 18.62411464 38.96639968 9.78297424 50.89103699 C3.28094984 58.59279073 -4.57954968 65.45931026 -13 71 C-13.66 71 -14.32 71 -15 71 C-15.495 72.485 -15.495 72.485 -16 74 C-16.66 74 -17.32 74 -18 74 C-18 74.66 -18 75.32 -18 76 C-18.66 76 -19.32 76 -20 76 C-20 76.66 -20 77.32 -20 78 C-21.375 79.625 -21.375 79.625 -23 81 C-23.66 81 -24.32 81 -25 81 C-25 81.66 -25 82.32 -25 83 C-25.66 83 -26.32 83 -27 83 C-27 83.66 -27 84.32 -27 85 C-42.87344351 77.69199121 -61.37968689 58.94472811 -70 44 C-74.94783091 30.49123659 -72.57008813 14.82170077 -70 1 C-65.05 1 -60.1 1 -55 1 C-55.21785156 3.30871094 -55.43570313 5.61742187 -55.66015625 7.99609375 C-57.05813662 27.82560514 -57.05813662 27.82560514 -48.3671875 44.95703125 C-42.50368913 51.26857657 -35.86164375 56.8105833 -29 62 C-27.60394531 60.78376953 -27.60394531 60.78376953 -26.1796875 59.54296875 C-23.99070177 57.64786951 -21.78583803 55.83919255 -19.46972656 54.10009766 C-6.64689079 44.55083284 -6.64689079 44.55083284 0.06201172 30.59667969 C1.42401582 20.44788122 0.76372045 10.16954072 0 0 Z " fill="#FFFFFF" transform="translate(70,36)"/>
<path d="M0 0 C28.05 0 56.1 0 85 0 C85 7.59 85 15.18 85 23 C79.06 23 73.12 23 67 23 C67 20.69 67 18.38 67 16 C61.72 16 56.44 16 51 16 C51 36.13 51 56.26 51 77 C45.39 77 39.78 77 34 77 C34 56.87 34 36.74 34 16 C27.73 16 21.46 16 15 16 C15 18.64 15 21.28 15 24 C10.05 24 5.1 24 0 24 C0 16.08 0 8.16 0 0 Z " fill="#BA2027" transform="translate(0,0)"/>
</svg>
