<?xml version="1.0" encoding="UTF-8"?>
<svg version="1.1" xmlns="http://www.w3.org/2000/svg" width="174" height="255">
<path d="M0 0 C10.23 0 20.46 0 31 0 C31 30.69 31 61.38 31 93 C29.68 93 28.36 93 27 93 C27 93.66 27 94.32 27 95 C26.34 95 25.68 95 25 95 C25 95.66 25 96.32 25 97 C24.34 97 23.68 97 23 97 C22.67 97.99 22.34 98.98 22 100 C21.01 100.33 20.02 100.66 19 101 C19 101.66 19 102.32 19 103 C18.34 103 17.68 103 17 103 C17 103.66 17 104.32 17 105 C16.34 105 15.68 105 15 105 C15 105.99 15 106.98 15 108 C11.66666667 111 11.66666667 111 9 111 C9 111.99 9 112.98 9 114 C8.34 114 7.68 114 7 114 C7 114.66 7 115.32 7 116 C5.5390625 117.5078125 5.5390625 117.5078125 3.625 119.125 C2.99851563 119.66382813 2.37203125 120.20265625 1.7265625 120.7578125 C0 122 0 122 -2 122 C-2 122.66 -2 123.32 -2 124 C-2.66 124 -3.32 124 -4 124 C-4.12375 124.61875 -4.2475 125.2375 -4.375 125.875 C-5 128 -5 128 -7 130 C-7.99 130 -8.98 130 -10 130 C-10 130.66 -10 131.32 -10 132 C-10.66 132 -11.32 132 -12 132 C-12.33 132.99 -12.66 133.98 -13 135 C-14.4375 136.6875 -14.4375 136.6875 -16 138 C-16.66 138 -17.32 138 -18 138 C-18 138.66 -18 139.32 -18 140 C-18.66 140 -19.32 140 -20 140 C-20 140.66 -20 141.32 -20 142 C-20.66 142 -21.32 142 -22 142 C-22 142.66 -22 143.32 -22 144 C-22.66 144 -23.32 144 -24 144 C-24 144.66 -24 145.32 -24 146 C-24.66 146 -25.32 146 -26 146 C-26 146.66 -26 147.32 -26 148 C-26.66 148 -27.32 148 -28 148 C-28.226875 148.556875 -28.45375 149.11375 -28.6875 149.6875 C-30.37550036 152.66159588 -32.46676517 154.72008865 -35 157 C-35.66 157 -36.32 157 -37 157 C-37 157.66 -37 158.32 -37 159 C-37.66 159 -38.32 159 -39 159 C-39.33 160.32 -39.66 161.64 -40 163 C-40.99 163 -41.98 163 -43 163 C-43 163.66 -43 164.32 -43 165 C-43.66 165 -44.32 165 -45 165 C-45 165.66 -45 166.32 -45 167 C-45.66 167 -46.32 167 -47 167 C-47 167.66 -47 168.32 -47 169 C-47.66 169 -48.32 169 -49 169 C-49 169.66 -49 170.32 -49 171 C-49.66 171 -50.32 171 -51 171 C-51 171.66 -51 172.32 -51 173 C-51.66 173 -52.32 173 -53 173 C-53 173.99 -53 174.98 -53 176 C-59.75 176.125 -59.75 176.125 -62 175 C-62 174.34 -62 173.68 -62 173 C-62.66 173 -63.32 173 -64 173 C-64 172.34 -64 171.68 -64 171 C-64.66 171 -65.32 171 -66 171 C-66 170.34 -66 169.68 -66 169 C-66.66 169 -67.32 169 -68 169 C-68 168.34 -68 167.68 -68 167 C-68.66 167 -69.32 167 -70 167 C-70 166.34 -70 165.68 -70 165 C-70.66 165 -71.32 165 -72 165 C-72 164.34 -72 163.68 -72 163 C-72.66 163 -73.32 163 -74 163 C-74 162.34 -74 161.68 -74 161 C-74.58265625 160.7421875 -75.1653125 160.484375 -75.765625 160.21875 C-78.1802903 158.90165983 -79.81740177 157.44911616 -81.75 155.5 C-82.36359375 154.8915625 -82.9771875 154.283125 -83.609375 153.65625 C-85 152 -85 152 -85 150 C-85.66 150 -86.32 150 -87 150 C-87 149.34 -87 148.68 -87 148 C-87.66 148 -88.32 148 -89 148 C-89 147.34 -89 146.68 -89 146 C-89.66 146 -90.32 146 -91 146 C-91 145.34 -91 144.68 -91 144 C-91.66 144 -92.32 144 -93 144 C-93 143.34 -93 142.68 -93 142 C-93.66 142 -94.32 142 -95 142 C-95 141.34 -95 140.68 -95 140 C-95.66 140 -96.32 140 -97 140 C-97 139.34 -97 138.68 -97 138 C-97.66 138 -98.32 138 -99 138 C-99 137.34 -99 136.68 -99 136 C-99.66 136 -100.32 136 -101 136 C-101 135.34 -101 134.68 -101 134 C-101.66 134 -102.32 134 -103 134 C-103 133.34 -103 132.68 -103 132 C-103.66 132 -104.32 132 -105 132 C-105 131.34 -105 130.68 -105 130 C-105.66 130 -106.32 130 -107 130 C-107 129.34 -107 128.68 -107 128 C-107.66 128 -108.32 128 -109 128 C-109 127.34 -109 126.68 -109 126 C-109.556875 125.7525 -110.11375 125.505 -110.6875 125.25 C-114.99707508 122.92049996 -118.78627123 119.68983674 -122 116 C-122 115.01 -122 114.02 -122 113 C-122.66 113 -123.32 113 -124 113 C-124 112.34 -124 111.68 -124 111 C-124.66 111 -125.32 111 -126 111 C-126 110.34 -126 109.68 -126 109 C-127.32 108.67 -128.64 108.34 -130 108 C-130 107.01 -130 106.02 -130 105 C-130.66 105 -131.32 105 -132 105 C-132 104.34 -132 103.68 -132 103 C-132.66 103 -133.32 103 -134 103 C-134 102.34 -134 101.68 -134 101 C-134.66 101 -135.32 101 -136 101 C-136 100.34 -136 99.68 -136 99 C-136.66 99 -137.32 99 -138 99 C-138 98.34 -138 97.68 -138 97 C-138.66 97 -139.32 97 -140 97 C-140 96.34 -140 95.68 -140 95 C-140.66 95 -141.32 95 -142 95 C-143.64773901 91.70452197 -143.12895725 88.04092836 -143.11352539 84.41943359 C-143.11374443 83.08763313 -143.11374443 83.08763313 -143.1139679 81.72892761 C-143.11326955 78.78540631 -143.10548081 75.84194779 -143.09765625 72.8984375 C-143.09579179 70.86105382 -143.09436802 68.82366969 -143.09336853 66.7862854 C-143.08954555 61.41702034 -143.07971711 56.04778223 -143.06866455 50.67852783 C-143.05844574 45.2023556 -143.0538699 39.72617902 -143.04882812 34.25 C-143.03809466 23.49998624 -143.02049962 12.74999957 -143 2 C-132.44 2 -121.88 2 -111 2 C-111 26.42 -111 50.84 -111 76 C-110.34 76 -109.68 76 -109 76 C-109 76.66 -109 77.32 -109 78 C-108.34 78 -107.68 78 -107 78 C-107 78.66 -107 79.32 -107 80 C-106.34 80 -105.68 80 -105 80 C-105 80.66 -105 81.32 -105 82 C-104.34 82 -103.68 82 -103 82 C-103 82.66 -103 83.32 -103 84 C-102.01 84.33 -101.02 84.66 -100 85 C-100 85.66 -100 86.32 -100 87 C-98.68 87.66 -97.36 88.32 -96 89 C-96 89.66 -96 90.32 -96 91 C-95.34 91 -94.68 91 -94 91 C-94 91.66 -94 92.32 -94 93 C-93.34 93 -92.68 93 -92 93 C-92 93.66 -92 94.32 -92 95 C-91.34 95 -90.68 95 -90 95 C-90 95.66 -90 96.32 -90 97 C-89.34 97 -88.68 97 -88 97 C-88 97.66 -88 98.32 -88 99 C-87.34 99 -86.68 99 -86 99 C-86 99.66 -86 100.32 -86 101 C-85.34 101 -84.68 101 -84 101 C-84 101.66 -84 102.32 -84 103 C-83.34 103 -82.68 103 -82 103 C-82 103.66 -82 104.32 -82 105 C-81.34 105 -80.68 105 -80 105 C-80 105.66 -80 106.32 -80 107 C-79.34 107 -78.68 107 -78 107 C-78 107.66 -78 108.32 -78 109 C-77.34 109 -76.68 109 -76 109 C-76 109.66 -76 110.32 -76 111 C-75.34 111 -74.68 111 -74 111 C-74 111.66 -74 112.32 -74 113 C-73.34 113 -72.68 113 -72 113 C-72 113.66 -72 114.32 -72 115 C-71.34 115 -70.68 115 -70 115 C-70 115.66 -70 116.32 -70 117 C-69.34 117 -68.68 117 -68 117 C-68 117.66 -68 118.32 -68 119 C-67.1028125 119.4021875 -67.1028125 119.4021875 -66.1875 119.8125 C-64.00152146 120.99917406 -62.58667406 122.09599113 -61 124 C-61 124.66 -61 125.32 -61 126 C-59.02 126.495 -59.02 126.495 -57 127 C-56.319375 126.01 -56.319375 126.01 -55.625 125 C-55.08875 124.34 -54.5525 123.68 -54 123 C-53.34 123 -52.68 123 -52 123 C-52 122.34 -52 121.68 -52 121 C-50.35546875 119.37890625 -50.35546875 119.37890625 -48.1875 117.5625 C-45.17536735 115.02660668 -45.17536735 115.02660668 -42.36328125 112.27734375 C-41 111 -41 111 -39 111 C-39 110.34 -39 109.68 -39 109 C-38.34 109 -37.68 109 -37 109 C-37 108.34 -37 107.68 -37 107 C-36.34 107 -35.68 107 -35 107 C-35 106.34 -35 105.68 -35 105 C-34.34 105 -33.68 105 -33 105 C-33 104.34 -33 103.68 -33 103 C-32.34 103 -31.68 103 -31 103 C-31 102.34 -31 101.68 -31 101 C-30.34 101 -29.68 101 -29 101 C-29 100.34 -29 99.68 -29 99 C-28.34 99 -27.68 99 -27 99 C-26.505 97.515 -26.505 97.515 -26 96 C-23.5625 93.3125 -23.5625 93.3125 -21 91 C-20.34 91 -19.68 91 -19 91 C-19 90.01 -19 89.02 -19 88 C-18.34 88 -17.68 88 -17 88 C-17 87.34 -17 86.68 -17 86 C-15.35546875 84.37890625 -15.35546875 84.37890625 -13.1875 82.5625 C-10.17536735 80.02660668 -10.17536735 80.02660668 -7.36328125 77.27734375 C-6 76 -6 76 -4 76 C-4 75.34 -4 74.68 -4 74 C-3.34 74 -2.68 74 -2 74 C-2 73.34 -2 72.68 -2 72 C-1.34 72 -0.68 72 0 72 C0 48.24 0 24.48 0 0 Z " fill="#465156" transform="translate(143,79)"/>
<path d="M0 0 C57.42 0 114.84 0 174 0 C174 16.5 174 33 174 50 C165.151875 50.0928125 165.151875 50.0928125 156.125 50.1875 C153.33313232 50.22846802 153.33313232 50.22846802 150.48486328 50.27026367 C149.01335297 50.2790236 147.5418354 50.2866687 146.0703125 50.29296875 C145.30323975 50.30831665 144.53616699 50.32366455 143.74584961 50.33947754 C141.53173828 50.34057617 141.53173828 50.34057617 138 50 C136 47 136 47 136 35 C126.1 35 116.2 35 106 35 C106 76.58 106 118.16 106 161 C93.79 161 81.58 161 69 161 C67.75320616 158.50641233 67.8769268 156.8424641 67.87974548 154.05197144 C67.87768349 152.48281479 67.87768349 152.48281479 67.87557983 150.88195801 C67.88097275 149.15350647 67.88097275 149.15350647 67.88647461 147.39013672 C67.88632858 146.18040192 67.88618256 144.97066711 67.8860321 143.72427368 C67.88661044 140.40215979 67.89163445 137.08010763 67.89860606 133.75800467 C67.90484662 130.28798192 67.90544396 126.8179584 67.90663147 123.34793091 C67.90974271 116.77478602 67.91795331 110.20165771 67.92798096 103.62852013 C67.93914852 96.14615166 67.94465417 88.66378241 67.94967639 81.18140769 C67.96013609 65.78759388 67.978479 50.39380292 68 35 C56.12 35 44.24 35 32 35 C32 40.28 32 45.56 32 51 C31 52 31 52 28.04077148 52.11352539 C26.74727783 52.10828857 25.45378418 52.10305176 24.12109375 52.09765625 C22.86482178 52.09515869 21.6085498 52.09266113 20.31420898 52.09008789 C18.70489502 52.08098389 17.09558105 52.07187988 15.4375 52.0625 C10.343125 52.041875 5.24875 52.02125 0 52 C0 34.84 0 17.68 0 0 Z " fill="#BA2027" transform="translate(0,5)"/>
<path d="M0 0 C57.42 0 114.84 0 174 0 C174 16.5 174 33 174 50 C165.151875 50.0928125 165.151875 50.0928125 156.125 50.1875 C153.33313232 50.22846802 153.33313232 50.22846802 150.48486328 50.27026367 C149.01335297 50.2790236 147.5418354 50.2866687 146.0703125 50.29296875 C145.30323975 50.30831665 144.53616699 50.32366455 143.74584961 50.33947754 C141.53173828 50.34057617 141.53173828 50.34057617 138 50 C136 47 136 47 136 35 C126.1 35 116.2 35 106 35 C106 76.58 106 118.16 106 161 C93.79 161 81.58 161 69 161 C67.75320616 158.50641233 67.8769268 156.8424641 67.87974548 154.05197144 C67.87768349 152.48281479 67.87768349 152.48281479 67.87557983 150.88195801 C67.88097275 149.15350647 67.88097275 149.15350647 67.88647461 147.39013672 C67.88632858 146.18040192 67.88618256 144.97066711 67.8860321 143.72427368 C67.88661044 140.40215979 67.89163445 137.08010763 67.89860606 133.75800467 C67.90484662 130.28798192 67.90544396 126.8179584 67.90663147 123.34793091 C67.90974271 116.77478602 67.91795331 110.20165771 67.92798096 103.62852013 C67.93914852 96.14615166 67.94465417 88.66378241 67.94967639 81.18140769 C67.96013609 65.78759388 67.978479 50.39380292 68 35 C56.12 35 44.24 35 32 35 C32 40.28 32 45.56 32 51 C31 52 31 52 28.04077148 52.11352539 C26.74727783 52.10828857 25.45378418 52.10305176 24.12109375 52.09765625 C22.86482178 52.09515869 21.6085498 52.09266113 20.31420898 52.09008789 C18.70489502 52.08098389 17.09558105 52.07187988 15.4375 52.0625 C10.343125 52.041875 5.24875 52.02125 0 52 C0 34.84 0 17.68 0 0 Z M2 4 C2 18.52 2 33.04 2 48 C10.58 48 19.16 48 28 48 C28 42.72 28 37.44 28 32 C42.19 32 56.38 32 71 32 C70.99214478 37.67207642 70.99214478 37.67207642 70.98413086 43.45874023 C70.96759834 55.919863 70.95647931 68.38098559 70.94818783 80.84211636 C70.94302488 88.40101619 70.9359822 95.95990565 70.92456055 103.51879883 C70.91461368 110.10479666 70.90814657 116.69078698 70.90591151 123.27679211 C70.9046044 126.76613071 70.90151858 130.25544784 70.89426994 133.74477959 C70.88625602 137.63381232 70.88600886 141.52282378 70.88647461 145.41186523 C70.8810817 147.15973579 70.8810817 147.15973579 70.87557983 148.94291687 C70.87764183 150.52263275 70.87764183 150.52263275 70.87974548 152.13426208 C70.87882369 153.05513328 70.8779019 153.97600447 70.87695217 154.92478085 C70.76895474 156.99029255 70.76895474 156.99029255 72 158 C82.23 158 92.46 158 103 158 C103 116.42 103 74.84 103 32 C115.21 32 127.42 32 140 32 C140 36.62 140 41.24 140 46 C150.56 46 161.12 46 172 46 C172 32.14 172 18.28 172 4 C115.9 4 59.8 4 2 4 Z " fill="#D78084" transform="translate(0,5)"/>
<path d="M0 0 C10.23 0 20.46 0 31 0 C31 30.69 31 61.38 31 93 C29.68 93 28.36 93 27 93 C27 93.66 27 94.32 27 95 C26.34 95 25.68 95 25 95 C25 95.66 25 96.32 25 97 C24.34 97 23.68 97 23 97 C22.67 97.99 22.34 98.98 22 100 C21.01 100.33 20.02 100.66 19 101 C19 101.66 19 102.32 19 103 C18.34 103 17.68 103 17 103 C17 103.66 17 104.32 17 105 C16.34 105 15.68 105 15 105 C15 105.99 15 106.98 15 108 C11.66666667 111 11.66666667 111 9 111 C9 111.99 9 112.98 9 114 C8.34 114 7.68 114 7 114 C7 114.66 7 115.32 7 116 C5.5390625 117.5078125 5.5390625 117.5078125 3.625 119.125 C2.99851563 119.66382813 2.37203125 120.20265625 1.7265625 120.7578125 C0 122 0 122 -2 122 C-2 122.66 -2 123.32 -2 124 C-2.66 124 -3.32 124 -4 124 C-4.12375 124.61875 -4.2475 125.2375 -4.375 125.875 C-5 128 -5 128 -7 130 C-7.99 130 -8.98 130 -10 130 C-10 130.66 -10 131.32 -10 132 C-10.66 132 -11.32 132 -12 132 C-12.33 132.99 -12.66 133.98 -13 135 C-14.4375 136.6875 -14.4375 136.6875 -16 138 C-16.66 138 -17.32 138 -18 138 C-18 138.66 -18 139.32 -18 140 C-18.66 140 -19.32 140 -20 140 C-20 140.66 -20 141.32 -20 142 C-20.66 142 -21.32 142 -22 142 C-22 142.66 -22 143.32 -22 144 C-22.66 144 -23.32 144 -24 144 C-24 144.66 -24 145.32 -24 146 C-24.66 146 -25.32 146 -26 146 C-26 146.66 -26 147.32 -26 148 C-26.66 148 -27.32 148 -28 148 C-28.226875 148.556875 -28.45375 149.11375 -28.6875 149.6875 C-30.37550036 152.66159588 -32.46676517 154.72008865 -35 157 C-35.66 157 -36.32 157 -37 157 C-37 157.66 -37 158.32 -37 159 C-37.66 159 -38.32 159 -39 159 C-39.33 160.32 -39.66 161.64 -40 163 C-40.99 163 -41.98 163 -43 163 C-43 163.66 -43 164.32 -43 165 C-43.66 165 -44.32 165 -45 165 C-45 165.66 -45 166.32 -45 167 C-45.66 167 -46.32 167 -47 167 C-47 167.66 -47 168.32 -47 169 C-47.66 169 -48.32 169 -49 169 C-49 169.66 -49 170.32 -49 171 C-49.66 171 -50.32 171 -51 171 C-51 171.66 -51 172.32 -51 173 C-51.66 173 -52.32 173 -53 173 C-53 173.99 -53 174.98 -53 176 C-59.75 176.125 -59.75 176.125 -62 175 C-62 174.34 -62 173.68 -62 173 C-62.66 173 -63.32 173 -64 173 C-64 172.34 -64 171.68 -64 171 C-64.66 171 -65.32 171 -66 171 C-66 170.34 -66 169.68 -66 169 C-66.66 169 -67.32 169 -68 169 C-68 168.34 -68 167.68 -68 167 C-68.66 167 -69.32 167 -70 167 C-70 166.34 -70 165.68 -70 165 C-70.66 165 -71.32 165 -72 165 C-72 164.34 -72 163.68 -72 163 C-72.66 163 -73.32 163 -74 163 C-74 162.34 -74 161.68 -74 161 C-74.58265625 160.7421875 -75.1653125 160.484375 -75.765625 160.21875 C-78.1802903 158.90165983 -79.81740177 157.44911616 -81.75 155.5 C-82.36359375 154.8915625 -82.9771875 154.283125 -83.609375 153.65625 C-85 152 -85 152 -85 150 C-85.66 150 -86.32 150 -87 150 C-87 149.34 -87 148.68 -87 148 C-87.66 148 -88.32 148 -89 148 C-89 147.34 -89 146.68 -89 146 C-89.66 146 -90.32 146 -91 146 C-91 145.34 -91 144.68 -91 144 C-91.66 144 -92.32 144 -93 144 C-93 143.34 -93 142.68 -93 142 C-93.66 142 -94.32 142 -95 142 C-95 141.34 -95 140.68 -95 140 C-95.66 140 -96.32 140 -97 140 C-97 139.34 -97 138.68 -97 138 C-97.66 138 -98.32 138 -99 138 C-99 137.34 -99 136.68 -99 136 C-99.66 136 -100.32 136 -101 136 C-101 135.34 -101 134.68 -101 134 C-101.66 134 -102.32 134 -103 134 C-103 133.34 -103 132.68 -103 132 C-103.66 132 -104.32 132 -105 132 C-105 131.34 -105 130.68 -105 130 C-105.66 130 -106.32 130 -107 130 C-107 129.34 -107 128.68 -107 128 C-107.66 128 -108.32 128 -109 128 C-109 127.34 -109 126.68 -109 126 C-109.556875 125.7525 -110.11375 125.505 -110.6875 125.25 C-114.99707508 122.92049996 -118.78627123 119.68983674 -122 116 C-122 115.01 -122 114.02 -122 113 C-122.66 113 -123.32 113 -124 113 C-124 112.34 -124 111.68 -124 111 C-119.82415849 112.63077163 -117.07224505 115.69623164 -114.00976562 118.8425293 C-113.42063889 119.43939545 -112.83151215 120.0362616 -112.22453308 120.6512146 C-110.94834739 121.94503006 -109.6743811 123.24103761 -108.40238953 124.53897667 C-106.39043955 126.59033891 -104.3710573 128.63409738 -102.34924316 130.67573547 C-96.60271663 136.48032858 -90.86603435 142.29450711 -85.14404297 148.12329102 C-81.64226657 151.68935123 -78.12853254 155.2432465 -74.6068573 158.78965187 C-73.2657218 160.14508378 -71.92928347 161.50517961 -70.59761047 162.86990929 C-68.73970257 164.77330806 -66.86705311 166.66092706 -64.99023438 168.5456543 C-64.44050461 169.11650253 -63.89077484 169.68735077 -63.3243866 170.27549744 C-61.63941831 172.00599885 -61.63941831 172.00599885 -59 174 C-56.70965808 174.15484692 -56.70965808 174.15484692 -55 173 C-53.71563266 171.0162233 -53.71563266 171.0162233 -53 169 C-52.34 169 -51.68 169 -51 169 C-51 168.34 -51 167.68 -51 167 C-50.29619202 166.57960449 -49.59238403 166.15920898 -48.86724854 165.72607422 C-45.48596171 163.69055064 -42.88324077 161.16339687 -40.12402344 158.3828125 C-39.5591925 157.82148621 -38.99436157 157.26015991 -38.41241455 156.68182373 C-36.55635571 154.83453119 -34.70766564 152.98006251 -32.859375 151.125 C-31.56883482 149.83580755 -30.27799791 148.54691208 -28.98687744 147.25830078 C-26.28714072 144.56150809 -23.59104354 141.86114221 -20.89746094 139.15820312 C-17.44179765 135.6911229 -13.97720289 132.23312885 -10.50985336 128.77774048 C-7.84515812 126.12026372 -5.18523423 123.45805245 -2.52674103 120.79437256 C-1.25074387 119.51704006 0.02674387 118.24119482 1.30573273 116.96685791 C3.08923495 115.18842314 4.86621962 113.40372367 6.64160156 111.6171875 C7.1724939 111.09034363 7.70338623 110.56349976 8.25036621 110.02069092 C10.56145143 107.68257433 11.9445625 106.1663125 13 103 C14.9539798 100.76688023 16.75831126 99.14370682 19.3125 97.625 C25.70953636 93.97356794 25.70953636 93.97356794 29.63519096 88.0629921 C29.8599955 85.79158481 29.86717939 83.6139716 29.79467773 81.33251953 C29.79621101 80.05836433 29.79621101 80.05836433 29.79777527 78.75846863 C29.79291836 75.96528648 29.73857177 73.1754196 29.68359375 70.3828125 C29.67053069 68.44084458 29.66056986 66.49885352 29.65357971 64.55685425 C29.62690978 59.45662236 29.55819643 54.35779595 29.48065186 49.25811768 C29.4089197 44.04987602 29.3770469 38.84140623 29.34179688 33.6328125 C29.26682384 23.42115954 29.14374009 13.21091677 29 3 C15.14 2.505 15.14 2.505 1 2 C1.4163269 4.90075317 1.4163269 4.90075317 1.84106445 7.86010742 C3.02900972 16.94785682 3.81302094 26.03638829 4.3125 35.1875 C4.3574271 36.00917034 4.4023542 36.83084068 4.44864273 37.67741013 C5.4577567 58.67218735 3.62050709 75.47738106 -10.6953125 91.6484375 C-15.31468656 96.73023607 -20.22712948 101.45140902 -25.3125 106.0625 C-25.9401614 106.63377499 -26.5678228 107.20504997 -27.21450424 107.79363632 C-49.56600153 128 -49.56600153 128 -55 128 C-55.33 129.32 -55.66 130.64 -56 132 C-59.63522544 131.42314832 -61.30521517 130.05987702 -63.86328125 127.46484375 C-64.58580078 126.73716797 -65.30832031 126.00949219 -66.05273438 125.25976562 C-66.79845703 124.49341797 -67.54417969 123.72707031 -68.3125 122.9375 C-69.04662109 122.19822266 -69.78074219 121.45894531 -70.53710938 120.69726562 C-73.90142226 117.28518965 -77.10323132 113.88082121 -80.078125 110.125 C-82.81514399 106.89598563 -85.73322068 104.77829995 -89.25837708 102.5198822 C-99.76825377 95.66091434 -111.42892788 86.88379462 -114.46327972 74.03885651 C-118.54416088 51.03138484 -115.77001224 26.14449845 -114 3 C-123.57 3.33 -133.14 3.66 -143 4 C-143 3.34 -143 2.68 -143 2 C-132.44 2 -121.88 2 -111 2 C-111 26.42 -111 50.84 -111 76 C-110.34 76 -109.68 76 -109 76 C-109 76.66 -109 77.32 -109 78 C-108.34 78 -107.68 78 -107 78 C-107 78.66 -107 79.32 -107 80 C-106.34 80 -105.68 80 -105 80 C-105 80.66 -105 81.32 -105 82 C-104.34 82 -103.68 82 -103 82 C-103 82.66 -103 83.32 -103 84 C-102.01 84.33 -101.02 84.66 -100 85 C-100 85.66 -100 86.32 -100 87 C-98.68 87.66 -97.36 88.32 -96 89 C-96 89.66 -96 90.32 -96 91 C-95.34 91 -94.68 91 -94 91 C-94 91.66 -94 92.32 -94 93 C-93.34 93 -92.68 93 -92 93 C-92 93.66 -92 94.32 -92 95 C-91.34 95 -90.68 95 -90 95 C-90 95.66 -90 96.32 -90 97 C-89.34 97 -88.68 97 -88 97 C-88 97.66 -88 98.32 -88 99 C-87.34 99 -86.68 99 -86 99 C-86 99.66 -86 100.32 -86 101 C-85.34 101 -84.68 101 -84 101 C-84 101.66 -84 102.32 -84 103 C-83.34 103 -82.68 103 -82 103 C-82 103.66 -82 104.32 -82 105 C-81.34 105 -80.68 105 -80 105 C-80 105.66 -80 106.32 -80 107 C-79.34 107 -78.68 107 -78 107 C-78 107.66 -78 108.32 -78 109 C-77.34 109 -76.68 109 -76 109 C-76 109.66 -76 110.32 -76 111 C-75.34 111 -74.68 111 -74 111 C-74 111.66 -74 112.32 -74 113 C-73.34 113 -72.68 113 -72 113 C-72 113.66 -72 114.32 -72 115 C-71.34 115 -70.68 115 -70 115 C-70 115.66 -70 116.32 -70 117 C-69.34 117 -68.68 117 -68 117 C-68 117.66 -68 118.32 -68 119 C-67.1028125 119.4021875 -67.1028125 119.4021875 -66.1875 119.8125 C-64.00152146 120.99917406 -62.58667406 122.09599113 -61 124 C-61 124.66 -61 125.32 -61 126 C-59.02 126.495 -59.02 126.495 -57 127 C-56.319375 126.01 -56.319375 126.01 -55.625 125 C-55.08875 124.34 -54.5525 123.68 -54 123 C-53.34 123 -52.68 123 -52 123 C-52 122.34 -52 121.68 -52 121 C-50.35546875 119.37890625 -50.35546875 119.37890625 -48.1875 117.5625 C-45.17536735 115.02660668 -45.17536735 115.02660668 -42.36328125 112.27734375 C-41 111 -41 111 -39 111 C-39 110.34 -39 109.68 -39 109 C-38.34 109 -37.68 109 -37 109 C-37 108.34 -37 107.68 -37 107 C-36.34 107 -35.68 107 -35 107 C-35 106.34 -35 105.68 -35 105 C-34.34 105 -33.68 105 -33 105 C-33 104.34 -33 103.68 -33 103 C-32.34 103 -31.68 103 -31 103 C-31 102.34 -31 101.68 -31 101 C-30.34 101 -29.68 101 -29 101 C-29 100.34 -29 99.68 -29 99 C-28.34 99 -27.68 99 -27 99 C-26.505 97.515 -26.505 97.515 -26 96 C-23.5625 93.3125 -23.5625 93.3125 -21 91 C-20.34 91 -19.68 91 -19 91 C-19 90.01 -19 89.02 -19 88 C-18.34 88 -17.68 88 -17 88 C-17 87.34 -17 86.68 -17 86 C-15.35546875 84.37890625 -15.35546875 84.37890625 -13.1875 82.5625 C-10.17536735 80.02660668 -10.17536735 80.02660668 -7.36328125 77.27734375 C-6 76 -6 76 -4 76 C-4 75.34 -4 74.68 -4 74 C-3.34 74 -2.68 74 -2 74 C-2 73.34 -2 72.68 -2 72 C-1.34 72 -0.68 72 0 72 C0 48.24 0 24.48 0 0 Z " fill="#D3D6D7" transform="translate(143,79)"/>
<path d="M0 0 C13.2 0 26.4 0 40 0 C40 41.25 40 82.5 40 125 C51.22 125 62.44 125 74 125 C74 83.75 74 42.5 74 0 C85.55 0 97.1 0 109 0 C109 4.95 109 9.9 109 15 C113.66327136 14.88023292 118.32628515 14.757642 122.98925781 14.62768555 C124.57612657 14.58432759 126.16304224 14.54265313 127.75 14.50268555 C130.02878979 14.44500368 132.30734322 14.38130362 134.5859375 14.31640625 C135.29744965 14.29969376 136.00896179 14.28298126 136.74203491 14.26576233 C140.49660817 14.20278063 140.49660817 14.20278063 144 13 C144 14.32 144 15.64 144 17 C138.90970056 17.0740421 133.81971308 17.12855008 128.72900391 17.16479492 C126.99652651 17.1799009 125.26408746 17.20038694 123.53173828 17.22631836 C121.04450022 17.26262321 118.55776674 17.27970765 116.0703125 17.29296875 C115.29317902 17.30845261 114.51604553 17.32393646 113.71536255 17.33988953 C111.53173828 17.34057617 111.53173828 17.34057617 108 17 C106 14 106 14 106 2 C96.1 2 86.2 2 76 2 C76 43.58 76 85.16 76 128 C63.79 128 51.58 128 39 128 C37.75320616 125.50641233 37.8769268 123.8424641 37.87974548 121.05197144 C37.87768349 119.48281479 37.87768349 119.48281479 37.87557983 117.88195801 C37.88097275 116.15350647 37.88097275 116.15350647 37.88647461 114.39013672 C37.88632858 113.18040192 37.88618256 111.97066711 37.8860321 110.72427368 C37.88661044 107.40215979 37.89163445 104.08010763 37.89860606 100.75800467 C37.90484662 97.28798192 37.90544396 93.8179584 37.90663147 90.34793091 C37.90974271 83.77478602 37.91795331 77.20165771 37.92798096 70.62852013 C37.93914852 63.14615166 37.94465417 55.66378241 37.94967639 48.18140769 C37.96013609 32.78759388 37.978479 17.39380292 38 2 C26.12 2 14.24 2 2 2 C2 7.28 2 12.56 2 18 C1 19 1 19 -1.95922852 19.11352539 C-3.25272217 19.10828857 -4.54621582 19.10305176 -5.87890625 19.09765625 C-6.90889992 19.09553383 -6.90889992 19.09553383 -7.95970154 19.09336853 C-10.16067801 19.08775479 -12.36155409 19.07520007 -14.5625 19.0625 C-16.05143083 19.05748676 -17.54036324 19.05292355 -19.02929688 19.04882812 C-22.68623075 19.03778093 -26.34310558 19.02050713 -30 19 C-30 18.01 -30 17.02 -30 16 C-20.1 16 -10.2 16 0 16 C0 10.72 0 5.44 0 0 Z " fill="#F5E0E1" transform="translate(30,38)"/>
<path d="M0 0 C57.42 0 114.84 0 174 0 C174 0.99 174 1.98 174 3 C116.58 3 59.16 3 0 3 C0 2.01 0 1.02 0 0 Z " fill="#EDCACC" transform="translate(0,5)"/>
<path d="M0 0 C1.21171875 0.00322266 2.4234375 0.00644531 3.671875 0.00976562 C4.94289063 0.01814453 6.21390625 0.02652344 7.5234375 0.03515625 C8.8021875 0.03966797 10.0809375 0.04417969 11.3984375 0.04882812 C14.56515042 0.06064422 17.73177106 0.0771181 20.8984375 0.09765625 C20.88209763 0.98333786 20.86575775 1.86901947 20.84892273 2.78153992 C20.70569482 11.18073551 20.62621167 19.5777012 20.61603069 27.97815228 C20.60861038 32.29603021 20.57765867 36.61091597 20.49047852 40.92797852 C20.40703786 45.10475296 20.38861144 49.27747813 20.41285133 53.45496559 C20.41107678 55.03812314 20.3869463 56.62143837 20.33875084 58.20386314 C20.1330867 65.38252826 20.09059195 71.35328054 24.89248657 77.0585022 C28.01236244 80.34872226 31.36300661 83.26351768 34.8984375 86.09765625 C30.09061259 86.09765625 27.40128264 82.73574158 24.12726974 79.53590012 C18.48137261 73.40084782 18.30773771 67.52849665 18.62967682 59.49478912 C18.66164909 58.72951653 18.69362137 57.96424393 18.7265625 57.17578125 C18.74899878 55.57873982 18.76605444 53.98161468 18.77801514 52.38446045 C18.82341599 48.21964593 18.94087799 44.06001099 19.07446289 39.8972168 C19.19815825 35.63401354 19.2522219 31.36995661 19.3125 27.10546875 C19.44045553 18.76691134 19.65113869 10.43352852 19.8984375 2.09765625 C11.3184375 2.09765625 2.7384375 2.09765625 -6.1015625 2.09765625 C-6.1015625 30.47765625 -6.1015625 58.85765625 -6.1015625 88.09765625 C-5.4415625 88.09765625 -4.7815625 88.09765625 -4.1015625 88.09765625 C-4.1015625 88.75765625 -4.1015625 89.41765625 -4.1015625 90.09765625 C-3.1115625 90.42765625 -2.1215625 90.75765625 -1.1015625 91.09765625 C-0.08290021 92.75298248 0.91379514 94.4218707 1.8984375 96.09765625 C3.51451477 97.89447901 5.18450273 99.64392347 6.8984375 101.34765625 C7.7646875 102.2190625 8.6309375 103.09046875 9.5234375 103.98828125 C11.79025265 106.28023008 11.79025265 106.28023008 14.8984375 107.09765625 C16.27812195 108.49734497 16.27812195 108.49734497 17.7956543 110.36376953 C23.02960383 116.52597156 28.81770449 122.14055169 34.54296875 127.83984375 C35.7615062 129.0565121 36.97982007 130.2734044 38.19792175 131.49050903 C41.38253893 134.67133543 44.57014783 137.84914674 47.75842285 141.02630615 C51.01200101 144.269612 54.26271394 147.51578688 57.51367188 150.76171875 C63.21254455 156.4510534 68.91387238 162.13791808 74.61701965 167.82296753 C76.04514245 169.24687803 77.4724193 170.67163805 78.8984375 172.09765625 C74.32515593 171.23089335 71.96572614 168.54521983 68.81640625 165.30859375 C68.21752594 164.70533264 67.61864563 164.10207153 67.00161743 163.48052979 C65.70294253 162.17044313 64.40774502 160.85690231 63.1156311 159.54034424 C61.0713511 157.4577968 59.01786365 155.38474579 56.96166992 153.31396484 C51.85733093 148.16949514 46.76938796 143.00890463 41.68078613 137.84887695 C37.37980579 133.48877089 33.07278755 129.13480417 28.75747681 124.78887939 C26.73274329 122.74467177 24.71724274 120.69164813 22.7019043 118.63818359 C21.46187099 117.38725382 20.22141518 116.13674268 18.98046875 114.88671875 C18.42138824 114.31213928 17.86230774 113.73755981 17.2862854 113.14556885 C14.55365838 110.41183343 12.69394624 108.81700977 8.8984375 108.09765625 C8.8984375 107.43765625 8.8984375 106.77765625 8.8984375 106.09765625 C7.5784375 105.76765625 6.2584375 105.43765625 4.8984375 105.09765625 C4.8984375 104.10765625 4.8984375 103.11765625 4.8984375 102.09765625 C4.2384375 102.09765625 3.5784375 102.09765625 2.8984375 102.09765625 C2.8984375 101.43765625 2.8984375 100.77765625 2.8984375 100.09765625 C2.2384375 100.09765625 1.5784375 100.09765625 0.8984375 100.09765625 C0.8984375 99.43765625 0.8984375 98.77765625 0.8984375 98.09765625 C0.2384375 98.09765625 -0.4215625 98.09765625 -1.1015625 98.09765625 C-1.1015625 97.43765625 -1.1015625 96.77765625 -1.1015625 96.09765625 C-1.7615625 96.09765625 -2.4215625 96.09765625 -3.1015625 96.09765625 C-3.1015625 95.43765625 -3.1015625 94.77765625 -3.1015625 94.09765625 C-3.7615625 94.09765625 -4.4215625 94.09765625 -5.1015625 94.09765625 C-5.1015625 93.43765625 -5.1015625 92.77765625 -5.1015625 92.09765625 C-5.7615625 92.09765625 -6.4215625 92.09765625 -7.1015625 92.09765625 C-8.72719636 88.84638852 -8.2306521 85.2722765 -8.21508789 81.70068359 C-8.21523392 80.83232376 -8.21537994 79.96396393 -8.2155304 79.06929016 C-8.21483211 76.19069953 -8.2070436 73.31217311 -8.19921875 70.43359375 C-8.19735427 68.44105057 -8.19593051 66.44850694 -8.19493103 64.45596313 C-8.19110819 59.20506531 -8.18127987 53.95419503 -8.17022705 48.70330811 C-8.16000793 43.34778211 -8.15543233 37.99225168 -8.15039062 32.63671875 C-8.13965741 22.1236858 -8.12258377 11.61067331 -8.1015625 1.09765625 C-5.33538687 -0.28543156 -3.0913825 -0.01444571 0 0 Z " fill="#7E8689" transform="translate(8.1015625,81.90234375)"/>
<path d="M0 0 C0.66 0 1.32 0 2 0 C2 40.92 2 81.84 2 124 C11.57 124 21.14 124 31 124 C31 83.08 31 42.16 31 0 C31.33 0 31.66 0 32 0 C32 41.58 32 83.16 32 126 C21.77 126 11.54 126 1 126 C0 125 0 125 -0.12304783 122.92478085 C-0.12212604 122.00390965 -0.12120424 121.08303846 -0.12025452 120.13426208 C-0.12162918 119.08111816 -0.12300385 118.02797424 -0.12442017 116.94291687 C-0.12082489 115.77766983 -0.11722961 114.61242279 -0.11352539 113.41186523 C-0.11367142 112.19252289 -0.11381744 110.97318054 -0.1139679 109.71688843 C-0.11338893 106.36372489 -0.10835968 103.01062226 -0.10139394 99.65746951 C-0.09515983 96.15674438 -0.09455656 92.65601852 -0.09336853 89.1552887 C-0.09025538 82.52190344 -0.08204222 75.88853459 -0.07201904 69.25515658 C-0.06085739 61.70509793 -0.05534732 54.15503851 -0.05032361 46.60497367 C-0.03985959 31.06997294 -0.02226047 15.53498858 0 0 Z " fill="#C7474D" transform="translate(71,37)"/>
<path d="M0 0 C9.24 0 18.48 0 28 0 C30.0285055 2.0285055 29.20917825 6.20193906 29.24047852 8.98876953 C29.25997307 10.24496346 29.25997307 10.24496346 29.27986145 11.52653503 C29.40679335 20.30423666 29.46336867 29.08291461 29.51489258 37.86132812 C29.54162366 42.02690767 29.59032774 46.19134081 29.65844727 50.35644531 C29.74044882 55.38277066 29.78308551 60.40800527 29.79795647 65.43496323 C29.81019913 67.34958478 29.83622048 69.26417063 29.87640572 71.17840958 C30.17638633 86.22501079 30.17638633 86.22501079 27.1635437 90.77093506 C25.17814476 92.52725267 23.37615618 93.84127446 21 95 C21 94.01 21 93.02 21 92 C22.21709908 91.17547333 22.21709908 91.17547333 23.45878601 90.33428955 C26.36968686 88.1384569 26.36968686 88.1384569 26.63923645 84.25408936 C26.67139833 82.72017101 26.67617926 81.18553117 26.65942383 79.65136719 C26.67514938 78.39228043 26.67514938 78.39228043 26.69119263 77.10775757 C26.71996249 74.33708826 26.71364901 71.56766704 26.70703125 68.796875 C26.72014514 66.87443473 26.73544841 64.95200826 26.75285339 63.02960205 C26.79275246 57.9726639 26.80289701 52.91608578 26.80688477 47.85900879 C26.81620695 42.69756108 26.85361474 37.53632573 26.88867188 32.375 C26.95329802 22.24996004 26.98390114 12.12523354 27 2 C18.75 2 10.5 2 2 2 C2 24.77 2 47.54 2 71 C1.34 71 0.68 71 0 71 C0 47.57 0 24.14 0 0 Z " fill="#899093" transform="translate(144,81)"/>
<path d="M0 0 C0.99 0.33 1.98 0.66 3 1 C2.01 1.33 1.02 1.66 0 2 C0 2.99 0 3.98 0 5 C-0.66 5 -1.32 5 -2 5 C-2 5.66 -2 6.32 -2 7 C-3.4609375 8.5078125 -3.4609375 8.5078125 -5.375 10.125 C-6.00148438 10.66382813 -6.62796875 11.20265625 -7.2734375 11.7578125 C-9 13 -9 13 -11 13 C-11 13.66 -11 14.32 -11 15 C-11.66 15 -12.32 15 -13 15 C-13.185625 15.928125 -13.185625 15.928125 -13.375 16.875 C-14 19 -14 19 -16 21 C-16.99 21 -17.98 21 -19 21 C-19 21.66 -19 22.32 -19 23 C-19.66 23 -20.32 23 -21 23 C-21.495 24.485 -21.495 24.485 -22 26 C-23.4375 27.6875 -23.4375 27.6875 -25 29 C-25.66 29 -26.32 29 -27 29 C-27 29.66 -27 30.32 -27 31 C-27.66 31 -28.32 31 -29 31 C-29 31.66 -29 32.32 -29 33 C-29.66 33 -30.32 33 -31 33 C-31 33.66 -31 34.32 -31 35 C-31.66 35 -32.32 35 -33 35 C-33 35.66 -33 36.32 -33 37 C-33.66 37 -34.32 37 -35 37 C-35 37.66 -35 38.32 -35 39 C-35.66 39 -36.32 39 -37 39 C-37.226875 39.556875 -37.45375 40.11375 -37.6875 40.6875 C-39.37550036 43.66159588 -41.46676517 45.72008865 -44 48 C-44.66 48 -45.32 48 -46 48 C-46 48.66 -46 49.32 -46 50 C-46.66 50 -47.32 50 -48 50 C-48.33 51.32 -48.66 52.64 -49 54 C-49.99 54 -50.98 54 -52 54 C-52 54.66 -52 55.32 -52 56 C-52.66 56 -53.32 56 -54 56 C-54 56.66 -54 57.32 -54 58 C-54.66 58 -55.32 58 -56 58 C-56 58.66 -56 59.32 -56 60 C-56.66 60 -57.32 60 -58 60 C-58 60.66 -58 61.32 -58 62 C-58.66 62 -59.32 62 -60 62 C-60 62.66 -60 63.32 -60 64 C-60.66 64 -61.32 64 -62 64 C-62 64.99 -62 65.98 -62 67 C-68.75 67.125 -68.75 67.125 -71 66 C-71 65.34 -71 64.68 -71 64 C-71.66 64 -72.32 64 -73 64 C-73 63.34 -73 62.68 -73 62 C-73.66 62 -74.32 62 -75 62 C-75 61.34 -75 60.68 -75 60 C-75.66 60 -76.32 60 -77 60 C-77 59.34 -77 58.68 -77 58 C-77.66 58 -78.32 58 -79 58 C-79 57.34 -79 56.68 -79 56 C-79.66 56 -80.32 56 -81 56 C-81 55.34 -81 54.68 -81 54 C-81.66 54 -82.32 54 -83 54 C-83 53.34 -83 52.68 -83 52 C-83.58265625 51.7421875 -84.1653125 51.484375 -84.765625 51.21875 C-87.1802903 49.90165983 -88.81740177 48.44911616 -90.75 46.5 C-91.67039062 45.58734375 -91.67039062 45.58734375 -92.609375 44.65625 C-94 43 -94 43 -94 41 C-94.66 41 -95.32 41 -96 41 C-96 40.34 -96 39.68 -96 39 C-96.66 39 -97.32 39 -98 39 C-98 38.34 -98 37.68 -98 37 C-98.66 37 -99.32 37 -100 37 C-100 36.34 -100 35.68 -100 35 C-100.66 35 -101.32 35 -102 35 C-102 34.34 -102 33.68 -102 33 C-102.66 33 -103.32 33 -104 33 C-104 32.34 -104 31.68 -104 31 C-104.66 31 -105.32 31 -106 31 C-106 30.34 -106 29.68 -106 29 C-106.66 29 -107.32 29 -108 29 C-108 28.34 -108 27.68 -108 27 C-108.66 27 -109.32 27 -110 27 C-110 26.34 -110 25.68 -110 25 C-110.66 25 -111.32 25 -112 25 C-112 24.34 -112 23.68 -112 23 C-112.66 23 -113.32 23 -114 23 C-114 22.34 -114 21.68 -114 21 C-114.66 21 -115.32 21 -116 21 C-116 20.34 -116 19.68 -116 19 C-116.66 19 -117.32 19 -118 19 C-118 18.34 -118 17.68 -118 17 C-118.556875 16.7525 -119.11375 16.505 -119.6875 16.25 C-123.99707508 13.92049996 -127.78627123 10.68983674 -131 7 C-131 6.01 -131 5.02 -131 4 C-131.66 4 -132.32 4 -133 4 C-133 3.34 -133 2.68 -133 2 C-128.82415849 3.63077163 -126.07224505 6.69623164 -123.00976562 9.8425293 C-122.42063889 10.43939545 -121.83151215 11.0362616 -121.22453308 11.6512146 C-119.94834739 12.94503006 -118.6743811 14.24103761 -117.40238953 15.53897667 C-115.39043955 17.59033891 -113.3710573 19.63409738 -111.34924316 21.67573547 C-105.60271663 27.48032858 -99.86603435 33.29450711 -94.14404297 39.12329102 C-90.64226657 42.68935123 -87.12853254 46.2432465 -83.6068573 49.78965187 C-82.2657218 51.14508378 -80.92928347 52.50517961 -79.59761047 53.86990929 C-77.73970257 55.77330806 -75.86705311 57.66092706 -73.99023438 59.5456543 C-73.16563972 60.40192665 -73.16563972 60.40192665 -72.3243866 61.27549744 C-70.63941831 63.00599885 -70.63941831 63.00599885 -68 65 C-65.70965808 65.15484692 -65.70965808 65.15484692 -64 64 C-62.71563266 62.0162233 -62.71563266 62.0162233 -62 60 C-61.34 60 -60.68 60 -60 60 C-60 59.34 -60 58.68 -60 58 C-59.29083939 57.57490646 -58.58167877 57.14981293 -57.85102844 56.71183777 C-54.56631341 54.73960236 -52.0519248 52.3176348 -49.38354492 49.6105957 C-48.84636841 49.07371124 -48.30919189 48.53682678 -47.7557373 47.9836731 C-45.9925284 46.21907788 -44.23649792 44.44751902 -42.48046875 42.67578125 C-41.25493899 41.44651888 -40.02896509 40.21769918 -38.80256653 38.98930359 C-35.58418589 35.76330606 -32.37185818 32.53134651 -29.1607666 29.2980957 C-25.87970221 25.996531 -22.59293148 22.70065788 -19.30664062 19.40429688 C-12.8655056 12.94174624 -6.43075267 6.47288083 0 0 Z " fill="#E7E9E9" transform="translate(152,188)"/>
<path d="M0 0 C11.22 0 22.44 0 34 0 C34 4.95 34 9.9 34 15 C38.66327136 14.88023292 43.32628515 14.757642 47.98925781 14.62768555 C49.57612657 14.58432759 51.16304224 14.54265313 52.75 14.50268555 C55.02878979 14.44500368 57.30734322 14.38130362 59.5859375 14.31640625 C60.29744965 14.29969376 61.00896179 14.28298126 61.74203491 14.26576233 C65.49660817 14.20278063 65.49660817 14.20278063 69 13 C69 14.32 69 15.64 69 17 C63.90970056 17.0740421 58.81971308 17.12855008 53.72900391 17.16479492 C51.99652651 17.1799009 50.26408746 17.20038694 48.53173828 17.22631836 C46.04450022 17.26262321 43.55776674 17.27970765 41.0703125 17.29296875 C40.29317902 17.30845261 39.51604553 17.32393646 38.71536255 17.33988953 C36.53173828 17.34057617 36.53173828 17.34057617 33 17 C31 14 31 14 31 2 C21.1 2 11.2 2 1 2 C1 42.26 1 82.52 1 124 C0.67 124 0.34 124 0 124 C0 83.08 0 42.16 0 0 Z " fill="#F9EEEF" transform="translate(105,38)"/>
<path d="M0 0 C0.66 0 1.32 0 2 0 C0.43343365 3.77518209 -1.91595919 6.15156804 -4.80102539 9.01220703 C-5.53057182 9.7397821 -5.53057182 9.7397821 -6.27485657 10.48205566 C-7.87790259 12.07862888 -9.4878019 13.66810711 -11.09765625 15.2578125 C-12.2139223 16.36780622 -13.32967348 17.47831795 -14.44493103 18.58932495 C-17.37811254 21.50921798 -20.31681263 24.42348764 -23.25714111 27.33618164 C-27.96828573 32.0041632 -32.67268552 36.67891865 -37.37389946 41.35689926 C-39.01847715 42.99123725 -40.66641586 44.62212995 -42.31471252 46.25271606 C-43.31937888 47.25055646 -44.32393703 48.24850583 -45.32836914 49.24658203 C-46.20836075 50.11832062 -47.08835236 50.9900592 -47.99501038 51.88821411 C-50.03955445 53.83617622 -50.03955445 53.83617622 -51 56 C-51.66 56 -52.32 56 -53 56 C-53.33 56.99 -53.66 57.98 -54 59 C-56.93230193 57.67879172 -58.98664899 56.25361803 -61.234375 53.9609375 C-61.80800781 53.38085938 -62.38164063 52.80078125 -62.97265625 52.203125 C-63.55917969 51.59984375 -64.14570312 50.9965625 -64.75 50.375 C-65.35199219 49.76398438 -65.95398438 49.15296875 -66.57421875 48.5234375 C-68.05405305 47.02011376 -69.52764676 45.51065144 -71 44 C-70.67 43.01 -70.34 42.02 -70 41 C-70 41.66 -70 42.32 -70 43 C-69.34 43 -68.68 43 -68 43 C-68 43.66 -68 44.32 -68 45 C-67.34 45 -66.68 45 -66 45 C-66 45.66 -66 46.32 -66 47 C-65.401875 47.268125 -64.80375 47.53625 -64.1875 47.8125 C-62.00152146 48.99917406 -60.58667406 50.09599113 -59 52 C-59 52.66 -59 53.32 -59 54 C-57.68 54.33 -56.36 54.66 -55 55 C-54.54625 54.34 -54.0925 53.68 -53.625 53 C-53.08875 52.34 -52.5525 51.68 -52 51 C-51.34 51 -50.68 51 -50 51 C-50 50.34 -50 49.68 -50 49 C-48.35546875 47.37890625 -48.35546875 47.37890625 -46.1875 45.5625 C-43.17536735 43.02660668 -43.17536735 43.02660668 -40.36328125 40.27734375 C-39 39 -39 39 -37 39 C-37 38.34 -37 37.68 -37 37 C-36.34 37 -35.68 37 -35 37 C-35 36.34 -35 35.68 -35 35 C-34.34 35 -33.68 35 -33 35 C-33 34.34 -33 33.68 -33 33 C-32.34 33 -31.68 33 -31 33 C-31 32.34 -31 31.68 -31 31 C-30.34 31 -29.68 31 -29 31 C-29 30.34 -29 29.68 -29 29 C-28.34 29 -27.68 29 -27 29 C-27 28.34 -27 27.68 -27 27 C-26.34 27 -25.68 27 -25 27 C-24.505 25.515 -24.505 25.515 -24 24 C-21.5625 21.3125 -21.5625 21.3125 -19 19 C-18.34 19 -17.68 19 -17 19 C-17 18.01 -17 17.02 -17 16 C-16.34 16 -15.68 16 -15 16 C-15 15.34 -15 14.68 -15 14 C-13.35546875 12.37890625 -13.35546875 12.37890625 -11.1875 10.5625 C-8.17536735 8.02660668 -8.17536735 8.02660668 -5.36328125 5.27734375 C-4 4 -4 4 -2 4 C-2 3.34 -2 2.68 -2 2 C-1.34 2 -0.68 2 0 2 C0 1.34 0 0.68 0 0 Z " fill="#F0F1F1" transform="translate(141,151)"/>
<path d="M0 0 C0.66 0 1.32 0 2 0 C2 0.66 2 1.32 2 2 C2.88643188 2.15082031 2.88643188 2.15082031 3.79077148 2.3046875 C6.40334206 3.12694421 7.47112043 4.15080574 9.34765625 6.125 C9.95287109 6.74890625 10.55808594 7.3728125 11.18164062 8.015625 C11.80232422 8.67046875 12.42300781 9.3253125 13.0625 10 C14.29869572 11.29615568 15.53940082 12.58802961 16.78515625 13.875 C17.33051025 14.44992188 17.87586426 15.02484375 18.43774414 15.6171875 C20.06477413 17.23936309 20.06477413 17.23936309 23 18 C24.37968445 19.39968872 24.37968445 19.39968872 25.8972168 21.26611328 C31.13116633 27.42831531 36.91926699 33.04289544 42.64453125 38.7421875 C43.8630687 39.95885585 45.08138257 41.17574815 46.29948425 42.39285278 C49.48410143 45.57367918 52.67171033 48.75149049 55.85998535 51.9286499 C59.11356351 55.17195575 62.36427644 58.41813063 65.61523438 61.6640625 C71.31410705 67.35339715 77.01543488 73.04026183 82.71858215 78.72531128 C84.14670495 80.14922178 85.5739818 81.5739818 87 83 C82.42671843 82.1332371 80.06728864 79.44756358 76.91796875 76.2109375 C76.31908844 75.60767639 75.72020813 75.00441528 75.10317993 74.38287354 C73.80450503 73.07278688 72.50930752 71.75924606 71.2171936 70.44268799 C69.1729136 68.36014055 67.11942615 66.28708954 65.06323242 64.21630859 C59.95889343 59.07183889 54.87095046 53.91124838 49.78234863 48.7512207 C45.48136829 44.39111464 41.17435005 40.03714792 36.85903931 35.69122314 C34.83430579 33.64701552 32.81880524 31.59399188 30.8034668 29.54052734 C29.56343349 28.28959757 28.32297768 27.03908643 27.08203125 25.7890625 C26.52295074 25.21448303 25.96387024 24.63990356 25.3878479 24.0479126 C22.65522088 21.31417718 20.79550874 19.71935352 17 19 C17 18.34 17 17.68 17 17 C15.68 16.67 14.36 16.34 13 16 C13 15.01 13 14.02 13 13 C12.34 13 11.68 13 11 13 C11 12.34 11 11.68 11 11 C10.34 11 9.68 11 9 11 C9 10.34 9 9.68 9 9 C8.34 9 7.68 9 7 9 C7 8.34 7 7.68 7 7 C6.34 7 5.68 7 5 7 C5 6.34 5 5.68 5 5 C4.34 5 3.68 5 3 5 C3 4.34 3 3.68 3 3 C2.34 3 1.68 3 1 3 C0.67 2.01 0.34 1.02 0 0 Z " fill="#9BA2A4" transform="translate(0,171)"/>
<path d="M0 0 C4.12532279 1.63137694 6.89637262 4.61488086 9.96191406 7.703125 C10.5477124 8.2854187 11.13351074 8.8677124 11.73706055 9.46765137 C13.66830457 11.3901058 15.59215663 13.31976811 17.515625 15.25 C18.85483021 16.58785813 20.19433221 17.92541924 21.53411865 19.26269531 C24.33818591 22.06381537 27.13860664 24.86851815 29.93652344 27.67578125 C33.53019671 31.28087077 37.13280251 34.87687899 40.73816299 38.47027588 C43.50404024 41.22894246 46.26515639 43.99233457 49.02483368 46.75720215 C50.35189581 48.08560183 51.68045453 49.41250811 53.01050568 50.73791504 C54.8637632 52.58611802 56.71052924 54.44056766 58.55566406 56.296875 C59.11042419 56.84758667 59.66518433 57.39829834 60.23675537 57.96569824 C64 61.77146884 64 61.77146884 64 64 C63.34 64 62.68 64 62 64 C62 63.34 62 62.68 62 62 C61.34 62 60.68 62 60 62 C60 61.34 60 60.68 60 60 C59.34 60 58.68 60 58 60 C58 59.34 58 58.68 58 58 C57.34 58 56.68 58 56 58 C56 57.34 56 56.68 56 56 C55.34 56 54.68 56 54 56 C54 55.34 54 54.68 54 54 C53.34 54 52.68 54 52 54 C52 53.34 52 52.68 52 52 C51.34 52 50.68 52 50 52 C50 51.34 50 50.68 50 50 C49.41734375 49.7421875 48.8346875 49.484375 48.234375 49.21875 C45.8197097 47.90165983 44.18259823 46.44911616 42.25 44.5 C41.32960938 43.58734375 41.32960938 43.58734375 40.390625 42.65625 C39 41 39 41 39 39 C38.34 39 37.68 39 37 39 C37 38.34 37 37.68 37 37 C36.34 37 35.68 37 35 37 C35 36.34 35 35.68 35 35 C34.34 35 33.68 35 33 35 C33 34.34 33 33.68 33 33 C32.34 33 31.68 33 31 33 C31 32.34 31 31.68 31 31 C30.34 31 29.68 31 29 31 C29 30.34 29 29.68 29 29 C28.34 29 27.68 29 27 29 C27 28.34 27 27.68 27 27 C26.34 27 25.68 27 25 27 C25 26.34 25 25.68 25 25 C24.34 25 23.68 25 23 25 C23 24.34 23 23.68 23 23 C22.34 23 21.68 23 21 23 C21 22.34 21 21.68 21 21 C20.34 21 19.68 21 19 21 C19 20.34 19 19.68 19 19 C18.34 19 17.68 19 17 19 C17 18.34 17 17.68 17 17 C16.34 17 15.68 17 15 17 C15 16.34 15 15.68 15 15 C14.443125 14.7525 13.88625 14.505 13.3125 14.25 C9.00292492 11.92049996 5.21372877 8.68983674 2 5 C2 4.01 2 3.02 2 2 C1.34 2 0.68 2 0 2 C0 1.34 0 0.68 0 0 Z " fill="#ECEDEE" transform="translate(19,190)"/>
<path d="M0 0 C10.23 0 20.46 0 31 0 C31 0.99 31 1.98 31 3 C20.77 3 10.54 3 0 3 C0 2.01 0 1.02 0 0 Z " fill="#E8EAEA" transform="translate(143,79)"/>
<path d="M0 0 C0.66 0 1.32 0 2 0 C2 0.66 2 1.32 2 2 C2.59852783 2.11174561 3.19705566 2.22349121 3.8137207 2.33862305 C7.39453812 3.4218653 9.6331214 6.20265841 12.1875 8.8125 C12.73341797 9.34681641 13.27933594 9.88113281 13.84179688 10.43164062 C16.59910705 13.20945125 18.28189388 15.15370556 19 19 C18.34 19 17.68 19 17 19 C17 18.34 17 17.68 17 17 C15.68 16.67 14.36 16.34 13 16 C13 15.01 13 14.02 13 13 C12.34 13 11.68 13 11 13 C11 12.34 11 11.68 11 11 C10.34 11 9.68 11 9 11 C9 10.34 9 9.68 9 9 C8.34 9 7.68 9 7 9 C7 8.34 7 7.68 7 7 C6.34 7 5.68 7 5 7 C5 6.34 5 5.68 5 5 C4.34 5 3.68 5 3 5 C3 4.34 3 3.68 3 3 C2.34 3 1.68 3 1 3 C0.67 2.01 0.34 1.02 0 0 Z " fill="#DBDDDE" transform="translate(0,171)"/>
<path d="M0 0 C-0.33 0.99 -0.66 1.98 -1 3 C-1.99 3.33 -2.98 3.66 -4 4 C-4 4.66 -4 5.32 -4 6 C-4.66 6 -5.32 6 -6 6 C-6 6.66 -6 7.32 -6 8 C-6.66 8 -7.32 8 -8 8 C-8 8.99 -8 9.98 -8 11 C-9.65 11.33 -11.3 11.66 -13 12 C-10.47605697 6.44732533 -6.91356215 0 0 0 Z " fill="#D3D6D7" transform="translate(166,176)"/>
<path d="M0 0 C0.33 0.66 0.66 1.32 1 2 C1.66 2 2.32 2 3 2 C3 2.66 3 3.32 3 4 C3.66 4 4.32 4 5 4 C5 4.66 5 5.32 5 6 C5.598125 6.268125 6.19625 6.53625 6.8125 6.8125 C8.99847854 7.99917406 10.41332594 9.09599113 12 11 C12 11.66 12 12.32 12 13 C12.66 13 13.32 13 14 13 C14 13.66 14 14.32 14 15 C10.16752664 13.41507527 7.66913709 10.96883386 4.75 8.0625 C3.85796875 7.18722656 2.9659375 6.31195313 2.046875 5.41015625 C0 3 0 3 0 0 Z " fill="#F3F4F4" transform="translate(70,192)"/>
<path d="M0 0 C0.66 0.33 1.32 0.66 2 1 C1.34 2.65 0.68 4.3 0 6 C-0.66 6 -1.32 6 -2 6 C-2 6.99 -2 7.98 -2 9 C-4.31 9 -6.62 9 -9 9 C-8.67 8.34 -8.34 7.68 -8 7 C-7.360625 6.87625 -6.72125 6.7525 -6.0625 6.625 C-3.80148727 6.19060573 -3.80148727 6.19060573 -2.75 3.9375 C-2.5025 3.298125 -2.255 2.65875 -2 2 C-1.34 2 -0.68 2 0 2 C0 1.34 0 0.68 0 0 Z " fill="#D1D4D5" transform="translate(92,246)"/>
<path d="M0 0 C0.99 0.33 1.98 0.66 3 1 C2.67 1.66 2.34 2.32 2 3 C1.34 3 0.68 3 0 3 C-0.33 3.99 -0.66 4.98 -1 6 C-2.32 5.34 -3.64 4.68 -5 4 C-2.6875 1.9375 -2.6875 1.9375 0 0 Z " fill="#E5E7E7" transform="translate(88,204)"/>
</svg>
